<?xml version="1.0" encoding="iso-8859-1"?>
<!-- Generator: Adobe Illustrator 19.0.0, SVG Export Plug-In . SVG Version: 6.00 Build 0)  -->
<svg version="1.1" id="Capa_1" xmlns="http://www.w3.org/2000/svg" xmlns:xlink="http://www.w3.org/1999/xlink" x="0px" y="0px"
	 viewBox="0 0 512 512" style="enable-background:new 0 0 512 512;" xml:space="preserve">
<circle style="fill:#FFD164;" cx="256" cy="256" r="248.5"/>
<path style="fill:#FFC350;" d="M288.065,472.435c-137.243,0-248.5-111.258-248.5-248.5c0-60.457,21.608-115.855,57.498-158.938
	C42.343,110.581,7.5,179.214,7.5,256c0,137.242,111.257,248.5,248.5,248.5c76.787,0,145.421-34.844,191.004-89.564
	C403.921,450.827,348.522,472.435,288.065,472.435z"/>
<circle style="fill:#6F6571;" cx="256" cy="256" r="24.05"/>
<g>
	<path style="fill:#5D5360;" d="M220.877,195.166L156.176,83.1c-4.674-8.096-15.312-10.568-23.005-5.256
		c-52.124,35.995-87.704,94.235-92.938,161.024C39.508,248.122,46.99,256,56.272,256h129.436c7.472,0,13.915-5.178,15.573-12.464
		c2.534-11.136,8.391-21.004,16.466-28.527C223.264,209.869,224.647,201.696,220.877,195.166z"/>
	<path style="fill:#5D5360;" d="M355.842,428.93l-64.703-112.07c-3.778-6.543-11.561-9.419-18.783-7.2
		c-5.171,1.59-10.659,2.452-16.355,2.452c-5.696,0-11.183-0.862-16.355-2.452c-7.222-2.22-15.006,0.656-18.783,7.2L156.16,428.93
		c-4.666,8.081-1.519,18.51,6.904,22.527c28.16,13.43,59.66,20.978,92.938,20.978s64.778-7.548,92.938-20.978
		C357.36,447.44,360.507,437.012,355.842,428.93z"/>
	<path style="fill:#5D5360;" d="M291.123,195.166L355.824,83.1c4.674-8.096,15.312-10.568,23.005-5.256
		c52.125,35.995,87.704,94.235,92.938,161.024c0.725,9.254-6.756,17.132-16.039,17.132H326.292c-7.472,0-13.915-5.178-15.573-12.464
		c-2.534-11.136-8.391-21.004-16.466-28.527C288.736,209.869,287.353,201.696,291.123,195.166z"/>
</g>
<g>
	<path style="fill:#6F6571;" d="M300.055,179.695l-8.932,15.471c-3.77,6.53-2.387,14.703,3.13,19.843
		c8.075,7.523,13.932,17.391,16.466,28.527c1.658,7.286,8.101,12.464,15.573,12.464h17.885
		C344.177,223.367,326.405,194.944,300.055,179.695z"/>
	<path style="fill:#6F6571;" d="M201.281,243.536c2.534-11.136,8.391-21.004,16.466-28.527c5.517-5.14,6.901-13.313,3.13-19.843
		l-8.932-15.471c-26.35,15.248-44.122,43.672-44.122,76.305h17.885C193.179,256,199.623,250.822,201.281,243.536z"/>
	<path style="fill:#6F6571;" d="M256,344.177c16.066,0,31.083-4.366,44.055-11.873l-8.917-15.444
		c-3.778-6.543-11.561-9.419-18.783-7.2c-5.171,1.59-10.659,2.452-16.355,2.452c-5.696,0-11.183-0.862-16.355-2.452
		c-7.222-2.22-15.006,0.656-18.783,7.2l-8.917,15.444C224.917,339.812,239.934,344.177,256,344.177z"/>
</g>
<path d="M437.02,74.98C388.667,26.629,324.38,0,256,0S123.333,26.629,74.98,74.98C26.629,123.333,0,187.62,0,256
	s26.629,132.667,74.98,181.02C123.333,485.371,187.62,512,256,512s132.667-26.629,181.02-74.98C485.371,388.667,512,324.38,512,256
	S485.371,123.333,437.02,74.98z M426.413,426.413C380.894,471.932,320.374,497,256,497s-124.894-25.068-170.413-70.587
	S15,320.374,15,256S40.068,131.106,85.587,85.587S191.626,15,256,15s124.894,25.068,170.413,70.587S497,191.626,497,256
	S471.932,380.894,426.413,426.413z"/>
<path d="M256,287.548c17.396,0,31.548-14.152,31.548-31.548S273.396,224.452,256,224.452S224.452,238.604,224.452,256
	S238.604,287.548,256,287.548z M256,239.452c9.125,0,16.548,7.423,16.548,16.548s-7.423,16.548-16.548,16.548
	s-16.548-7.423-16.548-16.548S246.875,239.452,256,239.452z"/>
<path d="M208.594,245.2c2.156-9.476,7.089-18.018,14.266-24.704c8.156-7.598,10.012-19.557,4.513-29.081L162.671,79.35
	c-3.288-5.696-8.86-9.792-15.288-11.239c-6.383-1.438-13.116-0.138-18.474,3.562c-55.83,38.555-90.877,99.282-96.153,166.609
	c-0.504,6.427,1.735,12.847,6.144,17.614c4.468,4.833,10.8,7.604,17.372,7.604h129.436C196.73,263.5,206.142,255.975,208.594,245.2z
	 M49.913,245.712c-1.601-1.731-2.383-3.954-2.203-6.258c4.922-62.806,37.625-119.462,89.723-155.439
	c1.419-0.979,3.056-1.485,4.745-1.485c0.632,0,1.273,0.071,1.911,0.215c2.388,0.538,4.374,1.995,5.592,4.105l64.701,112.066
	c1.984,3.437,1.266,7.798-1.748,10.605c-9.386,8.745-15.841,19.932-18.667,32.351c-0.888,3.903-4.285,6.628-8.26,6.628H56.272
	C53.869,248.5,51.551,247.484,49.913,245.712z"/>
<path d="M479.244,238.282c-3.955-50.466-25.302-98.63-60.107-135.619c-2.838-3.016-7.584-3.161-10.602-0.322
	c-3.017,2.838-3.161,7.585-0.322,10.602c32.473,34.509,52.388,79.439,56.077,126.512c0.181,2.304-0.602,4.526-2.203,6.258
	c-1.638,1.771-3.956,2.788-6.359,2.788H326.292c-3.975,0-7.372-2.726-8.26-6.628c-2.826-12.419-9.281-23.606-18.667-32.351
	c-3.013-2.808-3.732-7.169-1.748-10.606L362.319,86.85c1.218-2.11,3.204-3.567,5.592-4.105c2.342-0.529,4.706-0.076,6.656,1.271
	c3.898,2.692,7.756,5.555,11.468,8.511c3.24,2.581,7.959,2.044,10.539-1.196s2.044-7.959-1.196-10.539
	c-3.977-3.166-8.111-6.234-12.288-9.118c-5.358-3.7-12.094-4.999-18.474-3.562c-6.428,1.447-12,5.543-15.288,11.239l-64.701,112.066
	c-5.499,9.524-3.643,21.482,4.513,29.081c7.177,6.686,12.11,15.228,14.266,24.704c2.452,10.774,11.863,18.299,22.886,18.299h129.436
	c6.572,0,12.904-2.771,17.372-7.604C477.508,251.129,479.748,244.708,479.244,238.282z"/>
<path d="M297.633,313.111c-5.504-9.534-16.807-13.899-27.482-10.619c-9.153,2.814-19.148,2.814-28.302,0
	c-10.679-3.282-21.979,1.084-27.482,10.619L212,317.212c-2.071,3.587-0.841,8.174,2.746,10.245c3.586,2.07,8.173,0.841,10.245-2.746
	l2.367-4.1c1.986-3.44,6.134-4.996,10.084-3.781c12.013,3.693,25.106,3.693,37.118,0c3.95-1.214,8.098,0.341,10.084,3.781
	l64.704,112.07c1.218,2.109,1.489,4.557,0.764,6.892c-0.709,2.283-2.272,4.1-4.401,5.115
	c-28.171,13.436-58.354,20.248-89.709,20.248s-61.539-6.812-89.709-20.248c-2.129-1.016-3.692-2.832-4.401-5.115
	c-0.725-2.335-0.454-4.783,0.764-6.892l46.521-80.578c2.071-3.587,0.842-8.174-2.745-10.245c-3.587-2.072-8.175-0.842-10.245,2.745
	l-46.521,80.578c-3.285,5.69-4.05,12.557-2.099,18.84c1.936,6.232,6.407,11.41,12.27,14.206
	c30.204,14.405,62.559,21.708,96.167,21.708s65.963-7.304,96.167-21.708c5.862-2.796,10.334-7.974,12.27-14.206
	c1.951-6.283,1.186-13.15-2.099-18.84L297.633,313.111z"/>
<g>
</g>
<g>
</g>
<g>
</g>
<g>
</g>
<g>
</g>
<g>
</g>
<g>
</g>
<g>
</g>
<g>
</g>
<g>
</g>
<g>
</g>
<g>
</g>
<g>
</g>
<g>
</g>
<g>
</g>
</svg>
